STARTFONT 2.1
COMMENT $XConsortium: luBS19.bdf,v 1.3 94/04/02 15:59:38 gildea Exp $
COMMENT  (c) Copyright Bigelow & Holmes 1986, 1985. Lucida is a registered
COMMENT  trademark of Bigelow & Holmes. See LEGAL NOTICE file for terms 
COMMENT  of the license. 
FONT -RFX-Serene-Bold-R-Normal-Sans-19-190-75-75-P-122-windows-1251
SIZE 19 72 72
FONTBOUNDINGBOX 37 21 -13 -4
STARTPROPERTIES 24
FONTNAME_REGISTRY ""
FOUNDRY "RFX"
FAMILY_NAME "Serene"
WEIGHT_NAME "Bold"
SLANT "R"
SETWIDTH_NAME "Normal"
ADD_STYLE_NAME "Sans"
PIXEL_SIZE 19
POINT_SIZE 190
RESOLUTION_X 75
RESOLUTION_Y 75
SPACING "P"
AVERAGE_WIDTH "122"
CHARSET_REGISTRY "windows"
CHARSET_ENCODING "1251"
COPYRIGHT "Copyright Bigelow & Holmes 1986, 1985."
FONT_ASCENT 17
FONT_DESCENT 4
DEFAULT_CHAR 32
FACE_NAME "Lucida Sans Bold"
COPYRIGHT2 "Cyrillic and Euro glyphs copyright 2000 Dmitry Yu. Bolkhovityanov, bolkhov@inp.nsk.su"
SOURCEDATE "Tue Jul 25 19:15:54 2000"
PKGVERSION "1.1"
ASSEMBLER "cvtbdf.pl (Linux)"
ENDPROPERTIES
CHARS 244
STARTCHAR space
ENCODING 32
SWIDTH 343 0
DWIDTH 6 0
BBX 0 0 0 0
BITMAP
ENDCHAR
STARTCHAR exclam
ENCODING 33
SWIDTH 265 0
DWIDTH 7 0
BBX 3 14 2 0
BITMAP
E0
E0
E0
E0
E0
E0
60
60
60
60
00
00
E0
E0
ENDCHAR
STARTCHAR quotedbl
ENCODING 34
SWIDTH 530 0
DWIDTH 10 0
BBX 9 5 1 9
BITMAP
F380
F380
E380
6300
6300
ENDCHAR
STARTCHAR numbersign
ENCODING 35
SWIDTH 687 0
DWIDTH 13 0
BBX 12 14 1 0
BITMAP
0660
0CC0
0CC0
0CC0
7FF0
7FF0
1980
1980
1980
FFE0
FFE0
3300
3300
6700
ENDCHAR
STARTCHAR dollar
ENCODING 36
SWIDTH 687 0
DWIDTH 13 0
BBX 10 20 2 -3
BITMAP
0C00
0C00
0C00
3F80
7F80
7480
F400
FC00
7C00
3F00
1F80
0F80
0BC0
09C0
CBC0
FF80
FF00
0C00
0C00
0C00
ENDCHAR
STARTCHAR percent
ENCODING 37
SWIDTH 898 0
DWIDTH 17 0
BBX 16 14 1 0
BITMAP
780E
7818
CC38
CC70
CC60
CCC0
79C0
7B80
031E
063F
0E33
1C33
183F
701E
ENDCHAR
STARTCHAR ampersand
ENCODING 38
SWIDTH 792 0
DWIDTH 15 0
BBX 14 14 1 0
BITMAP
0F80
3FC0
3860
3860
1DE0
1F80
3F0C
771C
E79C
E3F8
E1F0
F0E0
7FF0
1F78
ENDCHAR
STARTCHAR quotesingle
ENCODING 39
SWIDTH 265 0
DWIDTH 5 0
BBX 4 6 1 8
BITMAP
F0
F0
F0
60
60
60
ENDCHAR
STARTCHAR parenleft
ENCODING 40
SWIDTH 386 0
DWIDTH 7 0
BBX 5 18 1 -4
BITMAP
08
18
38
70
70
60
E0
E0
E0
E0
E0
E0
60
70
70
38
18
08
ENDCHAR
STARTCHAR parenright
ENCODING 41
SWIDTH 386 0
DWIDTH 7 0
BBX 5 18 1 -4
BITMAP
80
C0
E0
70
70
30
38
38
38
38
38
38
30
70
70
E0
C0
80
ENDCHAR
STARTCHAR asterisk
ENCODING 42
SWIDTH 464 0
DWIDTH 9 0
BBX 7 6 1 8
BITMAP
38
54
EE
28
6C
28
ENDCHAR
STARTCHAR plus
ENCODING 43
SWIDTH 687 0
DWIDTH 13 0
BBX 10 12 2 0
BITMAP
0C00
0C00
0C00
0C00
0C00
FFC0
FFC0
0C00
0C00
0C00
0C00
0C00
ENDCHAR
STARTCHAR comma
ENCODING 44
SWIDTH 343 0
DWIDTH 7 0
BBX 4 8 1 -4
BITMAP
F0
F0
F0
F0
70
70
60
C0
ENDCHAR
STARTCHAR minus
ENCODING 45
SWIDTH 687 0
DWIDTH 13 0
BBX 11 2 1 5
BITMAP
FFE0
FFE0
ENDCHAR
STARTCHAR period
ENCODING 46
SWIDTH 343 0
DWIDTH 7 0
BBX 4 3 1 0
BITMAP
F0
F0
F0
ENDCHAR
STARTCHAR slash
ENCODING 47
SWIDTH 596 0
DWIDTH 11 0
BBX 11 18 0 -4
BITMAP
00E0
00C0
01C0
0180
0380
0300
0300
0600
0600
0C00
0C00
1800
1800
3800
3000
7000
6000
E000
ENDCHAR
STARTCHAR zero
ENCODING 48
SWIDTH 687 0
DWIDTH 13 0
BBX 12 14 1 0
BITMAP
0F00
3FC0
70E0
6060
E070
E070
E070
E070
E070
E070
6060
70E0
3FC0
0F00
ENDCHAR
STARTCHAR one
ENCODING 49
SWIDTH 687 0
DWIDTH 13 0
BBX 5 14 3 0
BITMAP
F8
F8
38
38
38
38
38
38
38
38
38
38
38
38
ENDCHAR
STARTCHAR two
ENCODING 50
SWIDTH 687 0
DWIDTH 13 0
BBX 10 14 1 0
BITMAP
7F00
FF80
C3C0
01C0
01C0
01C0
0380
0700
0E00
3C00
7800
F000
FFC0
FFC0
ENDCHAR
STARTCHAR three
ENCODING 51
SWIDTH 687 0
DWIDTH 13 0
BBX 10 14 2 0
BITMAP
7F00
FF80
83C0
01C0
01C0
0380
7E00
7F00
0380
01C0
01C0
83C0
FF80
FF00
ENDCHAR
STARTCHAR four
ENCODING 52
SWIDTH 687 0
DWIDTH 13 0
BBX 11 14 1 0
BITMAP
03C0
03C0
07C0
0DC0
1DC0
39C0
71C0
E1C0
FFE0
FFE0
01C0
01C0
01C0
01C0
ENDCHAR
STARTCHAR five
ENCODING 53
SWIDTH 687 0
DWIDTH 13 0
BBX 9 14 3 0
BITMAP
FF80
FF80
C000
C000
C000
FC00
FF00
0F00
0380
0380
0380
8780
FF00
FC00
ENDCHAR
STARTCHAR six
ENCODING 54
SWIDTH 687 0
DWIDTH 13 0
BBX 11 14 1 0
BITMAP
0FC0
3FC0
7840
7000
E000
EF80
FFC0
F1E0
E0E0
E0E0
60E0
71C0
3FC0
1F00
ENDCHAR
STARTCHAR seven
ENCODING 55
SWIDTH 687 0
DWIDTH 13 0
BBX 10 14 2 0
BITMAP
FFC0
FFC0
01C0
0380
0300
0700
0E00
1C00
1C00
3800
3800
7800
7000
F000
ENDCHAR
STARTCHAR eight
ENCODING 56
SWIDTH 687 0
DWIDTH 13 0
BBX 11 14 1 0
BITMAP
1F00
3F80
71C0
71C0
79C0
3F80
1F80
7FC0
63E0
E0E0
E0E0
F1E0
7FC0
3F00
ENDCHAR
STARTCHAR nine
ENCODING 57
SWIDTH 687 0
DWIDTH 13 0
BBX 11 14 1 0
BITMAP
1F00
7F80
71C0
E0C0
E0E0
E0E0
F1E0
7FE0
3EE0
00E0
01C0
43C0
7F80
7E00
ENDCHAR
STARTCHAR colon
ENCODING 58
SWIDTH 343 0
DWIDTH 7 0
BBX 3 10 2 0
BITMAP
E0
E0
E0
00
00
00
00
E0
E0
E0
ENDCHAR
STARTCHAR semicolon
ENCODING 59
SWIDTH 343 0
DWIDTH 7 0
BBX 3 14 2 -4
BITMAP
E0
E0
E0
00
00
00
E0
E0
E0
E0
60
60
40
C0
ENDCHAR
STARTCHAR less
ENCODING 60
SWIDTH 687 0
DWIDTH 13 0
BBX 11 12 1 0
BITMAP
0020
00E0
01E0
0780
1E00
F800
7800
1E00
0780
01E0
00E0
0020
ENDCHAR
STARTCHAR equal
ENCODING 61
SWIDTH 687 0
DWIDTH 13 0
BBX 11 7 1 2
BITMAP
FFE0
FFE0
0000
0000
0000
FFE0
FFE0
ENDCHAR
STARTCHAR greater
ENCODING 62
SWIDTH 687 0
DWIDTH 13 0
BBX 11 12 1 0
BITMAP
8000
E000
F000
3C00
0F00
03C0
03E0
0F00
3C00
F000
E000
8000
ENDCHAR
STARTCHAR question
ENCODING 63
SWIDTH 572 0
DWIDTH 11 0
BBX 9 14 1 0
BITMAP
FE00
FF00
8780
0380
0380
0700
0C00
1C00
3800
3800
0000
0000
3800
3800
ENDCHAR
STARTCHAR at
ENCODING 64
SWIDTH 833 0
DWIDTH 16 0
BBX 15 14 2 0
BITMAP
03F0
0C18
1004
2006
43F2
4462
8C62
98C2
99C4
9F4C
8CF0
4000
3080
0FC0
ENDCHAR
STARTCHAR A
ENCODING 65
SWIDTH 773 0
DWIDTH 15 0
BBX 14 14 0 0
BITMAP
0780
0780
0FC0
0DC0
0DC0
19E0
18E0
38E0
3FF0
3FF0
7078
6038
6038
C03C
ENDCHAR
STARTCHAR B
ENCODING 66
SWIDTH 669 0
DWIDTH 13 0
BBX 10 14 2 0
BITMAP
FF00
FF00
E380
E380
E380
E700
FC00
FF00
E3C0
E1C0
E1C0
E1C0
FF80
FF00
ENDCHAR
STARTCHAR C
ENCODING 67
SWIDTH 726 0
DWIDTH 14 0
BBX 13 14 0 0
BITMAP
07F8
1FF8
7C18
7000
F000
E000
E000
E000
E000
F000
7000
7C08
1FF8
0FF0
ENDCHAR
STARTCHAR D
ENCODING 68
SWIDTH 819 0
DWIDTH 16 0
BBX 13 14 2 0
BITMAP
FF80
FFE0
E1F0
E070
E078
E038
E038
E038
E038
E038
E070
E0F0
FFE0
FF80
ENDCHAR
STARTCHAR E
ENCODING 69
SWIDTH 645 0
DWIDTH 12 0
BBX 9 14 2 0
BITMAP
FF80
FF80
E000
E000
E000
E000
FF00
FF00
E000
E000
E000
E000
FF80
FF80
ENDCHAR
STARTCHAR F
ENCODING 70
SWIDTH 602 0
DWIDTH 11 0
BBX 9 14 2 0
BITMAP
FF80
FF80
E000
E000
E000
E000
FF00
FF00
E000
E000
E000
E000
E000
E000
ENDCHAR
STARTCHAR G
ENCODING 71
SWIDTH 759 0
DWIDTH 14 0
BBX 12 14 1 0
BITMAP
0FF0
3FF0
7810
7000
F000
E000
E000
E070
E070
E070
7070
7C70
3FF0
0FE0
ENDCHAR
STARTCHAR H
ENCODING 72
SWIDTH 813 0
DWIDTH 15 0
BBX 12 14 2 0
BITMAP
E070
E070
E070
E070
E070
E070
FFF0
FFF0
E070
E070
E070
E070
E070
E070
ENDCHAR
STARTCHAR I
ENCODING 73
SWIDTH 361 0
DWIDTH 7 0
BBX 3 14 2 0
BITMAP
E0
E0
E0
E0
E0
E0
E0
E0
E0
E0
E0
E0
E0
E0
ENDCHAR
STARTCHAR J
ENCODING 74
SWIDTH 501 0
DWIDTH 10 0
BBX 7 18 1 -4
BITMAP
0E
0E
0E
0E
0E
0E
0E
0E
0E
0E
0E
0E
0E
0E
0E
8E
FC
F8
ENDCHAR
STARTCHAR K
ENCODING 75
SWIDTH 753 0
DWIDTH 14 0
BBX 12 14 2 0
BITMAP
E0E0
E1C0
E380
E300
E600
EE00
FC00
FE00
EF00
E700
E780
E3C0
E1E0
E1F0
ENDCHAR
STARTCHAR L
ENCODING 76
SWIDTH 620 0
DWIDTH 12 0
BBX 9 14 2 0
BITMAP
E000
E000
E000
E000
E000
E000
E000
E000
E000
E000
E000
E000
FF80
FF80
ENDCHAR
STARTCHAR M
ENCODING 77
SWIDTH 940 0
DWIDTH 18 0
BBX 15 14 1 0
BITMAP
F81E
F83E
F83E
FC3E
DC7E
DC6E
DE6E
CEEE
CECE
CFCE
C78E
C78E
C38E
C00E
ENDCHAR
STARTCHAR N
ENCODING 78
SWIDTH 783 0
DWIDTH 15 0
BBX 12 14 1 0
BITMAP
E030
F030
F030
F830
FC30
DE30
CE30
C730
C7B0
C3F0
C1F0
C0F0
C0F0
C070
ENDCHAR
STARTCHAR O
ENCODING 79
SWIDTH 855 0
DWIDTH 16 0
BBX 15 14 1 0
BITMAP
0FE0
3FF0
783C
701C
F01E
E00E
E00E
E00E
E00E
F01E
701C
783C
3FF0
0FE0
ENDCHAR
STARTCHAR P
ENCODING 80
SWIDTH 657 0
DWIDTH 12 0
BBX 10 14 2 0
BITMAP
FF00
FFC0
E3C0
E1C0
E1C0
E1C0
E380
FF80
FE00
E000
E000
E000
E000
E000
ENDCHAR
STARTCHAR Q
ENCODING 81
SWIDTH 855 0
DWIDTH 16 0
BBX 17 18 1 -4
BITMAP
0FE000
3FF000
783C00
701C00
F01E00
E00E00
E00E00
E00E00
E00E00
F01E00
701C00
783C00
3FF800
0FF000
007F80
003F00
001F00
000600
ENDCHAR
STARTCHAR R
ENCODING 82
SWIDTH 734 0
DWIDTH 14 0
BBX 12 14 2 0
BITMAP
FF00
FF80
E1C0
E1C0
E1C0
E380
FF80
FE00
E700
E700
E380
E3C0
E1E0
E1F0
ENDCHAR
STARTCHAR S
ENCODING 83
SWIDTH 594 0
DWIDTH 11 0
BBX 10 14 1 0
BITMAP
3F80
7F80
F080
F000
F000
FC00
7F00
1F80
07C0
01C0
01C0
83C0
FF80
FE00
ENDCHAR
STARTCHAR T
ENCODING 84
SWIDTH 735 0
DWIDTH 14 0
BBX 13 14 0 0
BITMAP
FFF8
FFF8
0700
0700
0700
0700
0700
0700
0700
0700
0700
0700
0700
0700
ENDCHAR
STARTCHAR U
ENCODING 85
SWIDTH 783 0
DWIDTH 15 0
BBX 12 14 1 0
BITMAP
E070
E070
E070
E070
E070
E070
E070
E070
E070
E070
E070
70E0
7FE0
1F80
ENDCHAR
STARTCHAR V
ENCODING 86
SWIDTH 735 0
DWIDTH 14 0
BBX 14 14 0 0
BITMAP
F00C
7018
7818
3838
3830
3C30
1C60
1C60
0E60
0EC0
0EC0
07C0
0780
0780
ENDCHAR
STARTCHAR W
ENCODING 87
SWIDTH 940 0
DWIDTH 18 0
BBX 17 14 0 0
BITMAP
E0C180
71E180
71E300
71E300
71E300
7BF300
3B7600
3B7600
3B7600
3B7600
1E3C00
1E3C00
1E3C00
1E3C00
ENDCHAR
STARTCHAR X
ENCODING 88
SWIDTH 699 0
DWIDTH 13 0
BBX 12 14 1 0
BITMAP
7070
78E0
38C0
3D80
1D80
1F00
0F00
0F00
0F80
1B80
3BC0
31C0
61E0
E0F0
ENDCHAR
STARTCHAR Y
ENCODING 89
SWIDTH 738 0
DWIDTH 14 0
BBX 13 14 1 0
BITMAP
F038
7830
3860
3CE0
1CC0
0FC0
0F80
0700
0700
0700
0700
0700
0700
0700
ENDCHAR
STARTCHAR Z
ENCODING 90
SWIDTH 675 0
DWIDTH 13 0
BBX 11 14 1 0
BITMAP
FFE0
FFE0
01C0
03C0
0780
0700
0F00
1E00
1C00
3C00
7800
7000
FFE0
FFE0
ENDCHAR
STARTCHAR bracketleft
ENCODING 91
SWIDTH 386 0
DWIDTH 7 0
BBX 5 18 1 -4
BITMAP
F8
F8
E0
E0
E0
E0
E0
E0
E0
E0
E0
E0
E0
E0
E0
E0
F8
F8
ENDCHAR
STARTCHAR backslash
ENCODING 92
SWIDTH 596 0
DWIDTH 11 0
BBX 11 18 0 -4
BITMAP
E000
6000
7000
3000
3800
1800
1800
0C00
0C00
0600
0600
0300
0300
0380
0180
01C0
00C0
00E0
ENDCHAR
STARTCHAR bracketright
ENCODING 93
SWIDTH 386 0
DWIDTH 7 0
BBX 5 18 1 -4
BITMAP
F8
F8
38
38
38
38
38
38
38
38
38
38
38
38
38
38
F8
F8
ENDCHAR
STARTCHAR asciicircum
ENCODING 94
SWIDTH 687 0
DWIDTH 13 0
BBX 11 12 1 2
BITMAP
0400
0400
0E00
0E00
1F00
1B00
1B00
3180
3180
60C0
60C0
C060
ENDCHAR
STARTCHAR underscore
ENCODING 95
SWIDTH 500 0
DWIDTH 10 0
BBX 8 2 1 -3
BITMAP
FF
FF
ENDCHAR
STARTCHAR grave
ENCODING 96
SWIDTH 675 0
DWIDTH 13 0
BBX 5 2 3 12
BITMAP
E0
38
ENDCHAR
STARTCHAR a
ENCODING 97
SWIDTH 623 0
DWIDTH 12 0
BBX 10 10 1 0
BITMAP
7E00
7F80
4380
0380
3F80
FF80
E380
E380
FFC0
7BC0
ENDCHAR
STARTCHAR b
ENCODING 98
SWIDTH 696 0
DWIDTH 13 0
BBX 11 14 2 0
BITMAP
E000
E000
E000
E000
EF80
FFC0
F1E0
E0E0
E0E0
E0E0
E0E0
F1E0
FFC0
EF80
ENDCHAR
STARTCHAR c
ENCODING 99
SWIDTH 545 0
DWIDTH 10 0
BBX 8 10 1 0
BITMAP
1F
7F
71
E0
E0
E0
E0
70
7F
1F
ENDCHAR
STARTCHAR d
ENCODING 100
SWIDTH 696 0
DWIDTH 13 0
BBX 11 14 1 0
BITMAP
00E0
00E0
00E0
00E0
3EE0
7FE0
71E0
E0E0
E0E0
E0E0
E0E0
F1E0
7FE0
3EE0
ENDCHAR
STARTCHAR e
ENCODING 101
SWIDTH 614 0
DWIDTH 12 0
BBX 10 10 1 0
BITMAP
1F00
7F80
71C0
E1C0
FFC0
FFC0
F000
7040
7FC0
1FC0
ENDCHAR
STARTCHAR f
ENCODING 102
SWIDTH 461 0
DWIDTH 9 0
BBX 8 14 1 0
BITMAP
3F
7F
70
70
FE
FE
70
70
70
70
70
70
70
70
ENDCHAR
STARTCHAR g
ENCODING 103
SWIDTH 696 0
DWIDTH 13 0
BBX 11 14 1 -4
BITMAP
3EE0
7FE0
71E0
E0E0
E0E0
E0E0
E0E0
F1E0
7FE0
3CE0
00E0
41E0
7FC0
3F00
ENDCHAR
STARTCHAR h
ENCODING 104
SWIDTH 693 0
DWIDTH 13 0
BBX 10 14 2 0
BITMAP
E000
E000
E000
E000
EF80
FFC0
F1C0
E1C0
E1C0
E1C0
E1C0
E1C0
E1C0
E1C0
ENDCHAR
STARTCHAR i
ENCODING 105
SWIDTH 361 0
DWIDTH 7 0
BBX 3 14 2 0
BITMAP
E0
E0
00
00
E0
E0
E0
E0
E0
E0
E0
E0
E0
E0
ENDCHAR
STARTCHAR j
ENCODING 106
SWIDTH 361 0
DWIDTH 7 0
BBX 6 18 0 -4
BITMAP
1C
1C
00
00
1C
1C
1C
1C
1C
1C
1C
1C
1C
1C
1C
9C
FC
F8
ENDCHAR
STARTCHAR k
ENCODING 107
SWIDTH 681 0
DWIDTH 13 0
BBX 10 14 2 0
BITMAP
E000
E000
E000
E000
E380
E700
E600
EC00
EC00
FE00
EE00
EF00
E780
E3C0
ENDCHAR
STARTCHAR l
ENCODING 108
SWIDTH 361 0
DWIDTH 7 0
BBX 3 14 2 0
BITMAP
E0
E0
E0
E0
E0
E0
E0
E0
E0
E0
E0
E0
E0
E0
ENDCHAR
STARTCHAR m
ENCODING 109
SWIDTH 1006 0
DWIDTH 19 0
BBX 17 10 1 0
BITMAP
E79F00
FFFF80
F1E380
E1C380
E1C380
E1C380
E1C380
E1C380
E1C380
E1C380
ENDCHAR
STARTCHAR n
ENCODING 110
SWIDTH 693 0
DWIDTH 13 0
BBX 10 10 2 0
BITMAP
EF80
FFC0
F1C0
E1C0
E1C0
E1C0
E1C0
E1C0
E1C0
E1C0
ENDCHAR
STARTCHAR o
ENCODING 111
SWIDTH 675 0
DWIDTH 13 0
BBX 11 10 1 0
BITMAP
1F00
7FC0
71C0
E0E0
E0E0
E0E0
E0E0
71C0
7FC0
1F00
ENDCHAR
STARTCHAR p
ENCODING 112
SWIDTH 696 0
DWIDTH 13 0
BBX 11 14 2 -4
BITMAP
EF80
FFC0
F1E0
E0E0
E0E0
E0E0
E0E0
F1C0
FFC0
EF80
E000
E000
E000
E000
ENDCHAR
STARTCHAR q
ENCODING 113
SWIDTH 696 0
DWIDTH 13 0
BBX 11 14 1 -4
BITMAP
3EE0
7FE0
F1E0
E0E0
E0E0
E0E0
E0E0
F1E0
7FE0
3EE0
00E0
00E0
00E0
00E0
ENDCHAR
STARTCHAR r
ENCODING 114
SWIDTH 500 0
DWIDTH 9 0
BBX 7 10 2 0
BITMAP
EE
FE
FE
F0
E0
E0
E0
E0
E0
E0
ENDCHAR
STARTCHAR s
ENCODING 115
SWIDTH 622 0
DWIDTH 12 0
BBX 9 10 2 0
BITMAP
7F00
FF00
F100
F000
FE00
3F80
0F80
8780
FF00
FE00
ENDCHAR
STARTCHAR t
ENCODING 116
SWIDTH 436 0
DWIDTH 8 0
BBX 6 13 1 0
BITMAP
30
70
70
FC
FC
70
70
70
70
70
70
7C
3C
ENDCHAR
STARTCHAR u
ENCODING 117
SWIDTH 693 0
DWIDTH 13 0
BBX 10 10 2 0
BITMAP
E1C0
E1C0
E1C0
E1C0
E1C0
E1C0
E1C0
E3C0
FFC0
7DC0
ENDCHAR
STARTCHAR v
ENCODING 118
SWIDTH 663 0
DWIDTH 13 0
BBX 12 10 0 0
BITMAP
F070
7060
7860
38C0
3CC0
1DC0
1D80
0F80
0F00
0F00
ENDCHAR
STARTCHAR w
ENCODING 119
SWIDTH 885 0
DWIDTH 17 0
BBX 16 10 0 0
BITMAP
E1C3
73C6
73E6
73E6
73EE
3EEC
3E7C
3E7C
3C78
1C78
ENDCHAR
STARTCHAR x
ENCODING 120
SWIDTH 568 0
DWIDTH 11 0
BBX 10 10 1 0
BITMAP
F1C0
7B80
3F00
3F00
1E00
1E00
3F00
3780
7780
E3C0
ENDCHAR
STARTCHAR y
ENCODING 121
SWIDTH 645 0
DWIDTH 12 0
BBX 12 14 0 -4
BITMAP
F070
7060
78E0
38C0
39C0
1D80
1F80
1F00
0F00
0E00
0E00
1C00
3C00
7800
ENDCHAR
STARTCHAR z
ENCODING 122
SWIDTH 608 0
DWIDTH 12 0
BBX 10 10 1 0
BITMAP
FFC0
FFC0
0780
0F00
1E00
3E00
7C00
7800
FFC0
FFC0
ENDCHAR
STARTCHAR braceleft
ENCODING 123
SWIDTH 386 0
DWIDTH 7 0
BBX 5 18 1 -4
BITMAP
38
78
70
70
70
38
38
30
E0
E0
30
38
38
78
70
70
78
38
ENDCHAR
STARTCHAR bar
ENCODING 124
SWIDTH 265 0
DWIDTH 5 0
BBX 2 18 2 -4
BITMAP
C0
C0
C0
C0
C0
C0
C0
C0
C0
C0
C0
C0
C0
C0
C0
C0
C0
C0
ENDCHAR
STARTCHAR braceright
ENCODING 125
SWIDTH 386 0
DWIDTH 7 0
BBX 5 18 1 -4
BITMAP
C0
E0
E0
E0
E0
E0
E0
60
38
38
60
E0
E0
E0
E0
E0
E0
C0
ENDCHAR
STARTCHAR asciitilde
ENCODING 126
SWIDTH 687 0
DWIDTH 13 0
BBX 11 5 1 3
BITMAP
7860
7C60
CE60
C7C0
C3C0
ENDCHAR
STARTCHAR afii10051
ENCODING 128
SWIDTH 947 0
DWIDTH 18 0
BBX 17 14 0 0
BITMAP
FFF800
FFF800
070000
070000
070000
077E00
07FF00
078780
070380
070380
070380
070780
071F00
071E00
ENDCHAR
STARTCHAR afii10052
ENCODING 129
SWIDTH 578 0
DWIDTH 11 0
BBX 9 17 2 0
BITMAP
0700
1C00
0000
FF80
FF80
E000
E000
E000
E000
E000
E000
E000
E000
E000
E000
E000
E000
ENDCHAR
STARTCHAR quotesinglbase
ENCODING 130
SWIDTH 265 0
DWIDTH 5 0
BBX 4 8 1 -4
BITMAP
F0
F0
F0
F0
70
70
60
C0
ENDCHAR
STARTCHAR afii10100
ENCODING 131
SWIDTH 526 0
DWIDTH 10 0
BBX 8 13 2 0
BITMAP
0E
38
00
FF
FF
E0
E0
E0
E0
E0
E0
E0
E0
ENDCHAR
STARTCHAR quotedblbase
ENCODING 132
SWIDTH 530 0
DWIDTH 10 0
BBX 9 8 1 -4
BITMAP
E380
E380
E380
6180
6180
6180
4300
8200
ENDCHAR
STARTCHAR ellipsis
ENCODING 133
SWIDTH 1000 0
DWIDTH 19 0
BBX 15 2 2 0
BITMAP
C306
C306
ENDCHAR
STARTCHAR dagger
ENCODING 134
SWIDTH 693 0
DWIDTH 13 0
BBX 9 18 2 -4
BITMAP
1C00
1C00
1C00
1C00
1C00
FF80
FF80
1C00
1C00
1C00
1C00
1C00
1C00
1C00
1C00
1C00
1C00
1C00
ENDCHAR
STARTCHAR daggerdbl
ENCODING 135
SWIDTH 693 0
DWIDTH 13 0
BBX 9 18 2 -4
BITMAP
1C00
1C00
1C00
1C00
1C00
FF80
FF80
1C00
1C00
1C00
1C00
FF80
FF80
1C00
1C00
1C00
1C00
1C00
ENDCHAR
STARTCHAR Euro
ENCODING 136
SWIDTH 789 0
DWIDTH 15 0
BBX 14 14 0 0
BITMAP
03FC
0FFC
3E0C
3800
7800
FFC0
7000
FF80
7000
7800
3800
3E04
0FFC
07F8
ENDCHAR
STARTCHAR perthousand
ENCODING 137
SWIDTH 1313 0
DWIDTH 25 0
BBX 24 14 0 0
BITMAP
780E00
781C00
CC3800
CC3000
CC6000
CCE000
79C000
7B8000
033E1E
067F3F
0E6333
1C6333
187F3F
303E1E
ENDCHAR
STARTCHAR afii10058
ENCODING 138
SWIDTH 1105 0
DWIDTH 21 0
BBX 19 14 1 0
BITMAP
3FF000
3FF000
387000
387000
387000
387000
387F00
387FC0
3871C0
3870E0
3870E0
7070E0
F07FC0
E07F80
ENDCHAR
STARTCHAR guilsinglleft
ENCODING 139
SWIDTH 361 0
DWIDTH 7 0
BBX 6 8 0 1
BITMAP
08
1C
38
F0
70
38
18
0C
ENDCHAR
STARTCHAR afii10059
ENCODING 140
SWIDTH 1105 0
DWIDTH 21 0
BBX 18 14 2 0
BITMAP
E0E000
E0E000
E0E000
E0E000
E0E000
E0E000
FFFE00
FFFF80
E0E380
E0E1C0
E0E1C0
E0E1C0
E0FF80
E0FF00
ENDCHAR
STARTCHAR afii10061
ENCODING 141
SWIDTH 736 0
DWIDTH 14 0
BBX 12 17 2 0
BITMAP
0380
0E00
0000
E0E0
E1C0
E380
E300
E600
EE00
FC00
FE00
EF00
E700
E780
E3C0
E1E0
E1F0
ENDCHAR
STARTCHAR afii10060
ENCODING 142
SWIDTH 947 0
DWIDTH 18 0
BBX 17 14 0 0
BITMAP
FFF800
FFF800
070000
070000
070000
077E00
07FF00
078780
070380
070380
070380
070380
070380
070380
ENDCHAR
STARTCHAR afii10145
ENCODING 143
SWIDTH 789 0
DWIDTH 15 0
BBX 12 17 2 -3
BITMAP
E070
E070
E070
E070
E070
E070
E070
E070
E070
E070
E070
E070
FFF0
FFF0
0700
0700
0700
ENDCHAR
STARTCHAR afii10099
ENCODING 144
SWIDTH 684 0
DWIDTH 13 0
BBX 11 18 1 -4
BITMAP
7000
FF00
FF00
7000
77C0
7FE0
78E0
70E0
70E0
70E0
70E0
70E0
70E0
70E0
00E0
01C0
07C0
0700
ENDCHAR
STARTCHAR quoteleft
ENCODING 145
SWIDTH 265 0
DWIDTH 5 0
BBX 4 6 1 8
BITMAP
30
60
F0
F0
F0
F0
ENDCHAR
STARTCHAR quoteright
ENCODING 146
SWIDTH 265 0
DWIDTH 5 0
BBX 4 6 1 8
BITMAP
F0
F0
F0
70
60
C0
ENDCHAR
STARTCHAR quotedblleft
ENCODING 147
SWIDTH 530 0
DWIDTH 10 0
BBX 9 6 1 8
BITMAP
6180
E300
C300
E380
E380
E380
ENDCHAR
STARTCHAR quotedblright
ENCODING 148
SWIDTH 530 0
DWIDTH 10 0
BBX 9 6 1 8
BITMAP
E380
E380
E380
6180
6380
C300
ENDCHAR
STARTCHAR bullet
ENCODING 149
SWIDTH 687 0
DWIDTH 13 0
BBX 7 6 3 3
BITMAP
FE
FE
FE
FE
FE
FE
ENDCHAR
STARTCHAR endash
ENCODING 150
SWIDTH 500 0
DWIDTH 10 0
BBX 8 2 1 5
BITMAP
FF
FF
ENDCHAR
STARTCHAR emdash
ENCODING 151
SWIDTH 1000 0
DWIDTH 19 0
BBX 18 1 1 5
BITMAP
FFFFC0
ENDCHAR
STARTCHAR trademark
ENCODING 153
SWIDTH 901 0
DWIDTH 17 0
BBX 17 8 0 6
BITMAP
FEF780
FEF780
38F780
38FF80
38FF80
38DB80
38DB80
38C380
ENDCHAR
STARTCHAR afii10106
ENCODING 154
SWIDTH 1000 0
DWIDTH 19 0
BBX 17 10 1 0
BITMAP
3FE000
3FE000
38E000
38E000
38FE00
38FF00
38E380
38E380
F8FF80
F0FF00
ENDCHAR
STARTCHAR guilsinglright
ENCODING 155
SWIDTH 361 0
DWIDTH 7 0
BBX 6 8 0 1
BITMAP
C0
60
70
38
3C
70
E0
40
ENDCHAR
STARTCHAR afii10107
ENCODING 156
SWIDTH 947 0
DWIDTH 18 0
BBX 15 10 2 0
BITMAP
E380
E380
E380
E380
FFF8
FFFC
E38E
E38E
E3FE
E3FC
ENDCHAR
STARTCHAR afii10109
ENCODING 157
SWIDTH 684 0
DWIDTH 13 0
BBX 10 13 2 0
BITMAP
0700
1C00
0000
E380
E700
E600
EC00
EC00
FE00
EE00
EF00
E780
E3C0
ENDCHAR
STARTCHAR afii10108
ENCODING 158
SWIDTH 684 0
DWIDTH 13 0
BBX 11 14 1 0
BITMAP
7000
FF00
FF00
7000
77C0
7FE0
78E0
70E0
70E0
70E0
70E0
70E0
70E0
70E0
ENDCHAR
STARTCHAR afii10193
ENCODING 159
SWIDTH 684 0
DWIDTH 13 0
BBX 10 12 2 -2
BITMAP
E1C0
E1C0
E1C0
E1C0
E1C0
E1C0
E1C0
E1C0
FFC0
FFC0
0E00
0E00
ENDCHAR
STARTCHAR space
ENCODING 160
SWIDTH 343 0
DWIDTH 6 0
BBX 0 0 0 0
BITMAP
ENDCHAR
STARTCHAR afii10062
ENCODING 161
SWIDTH 736 0
DWIDTH 14 0
BBX 13 17 1 0
BITMAP
0CC0
0780
0000
F038
7830
3870
3C60
1CE0
1FC0
0F80
0F80
0700
0700
0E00
0E00
7C00
7800
ENDCHAR
STARTCHAR afii10110
ENCODING 162
SWIDTH 631 0
DWIDTH 12 0
BBX 12 17 0 -4
BITMAP
1980
0F00
0000
F070
7060
78E0
38C0
39C0
1D80
1F80
1F00
0F00
0E00
0E00
1C00
3C00
7800
ENDCHAR
STARTCHAR afii10057
ENCODING 163
SWIDTH 501 0
DWIDTH 10 0
BBX 7 18 1 -4
BITMAP
0E
0E
0E
0E
0E
0E
0E
0E
0E
0E
0E
0E
0E
0E
0E
8E
FC
F8
ENDCHAR
STARTCHAR currency
ENCODING 164
SWIDTH 687 0
DWIDTH 13 0
BBX 13 14 0 0
BITMAP
4010
E038
6030
3760
1FC0
38E0
3060
3060
3060
18C0
3FE0
7770
E038
4010
ENDCHAR
STARTCHAR afii10050
ENCODING 165
SWIDTH 578 0
DWIDTH 11 0
BBX 9 17 2 0
BITMAP
0380
0380
0380
FF80
FF80
E000
E000
E000
E000
E000
E000
E000
E000
E000
E000
E000
E000
ENDCHAR
STARTCHAR brokenbar
ENCODING 166
SWIDTH 265 0
DWIDTH 5 0
BBX 2 18 2 -4
BITMAP
C0
C0
C0
C0
C0
C0
C0
00
00
00
00
C0
C0
C0
C0
C0
C0
C0
ENDCHAR
STARTCHAR section
ENCODING 167
SWIDTH 693 0
DWIDTH 13 0
BBX 10 18 2 -4
BITMAP
3F80
7F80
F080
F000
F800
7F00
7F80
C7C0
C1C0
E0C0
FC80
7F80
1F80
07C0
03C0
C3C0
FF80
FF00
ENDCHAR
STARTCHAR afii10023
ENCODING 168
SWIDTH 645 0
DWIDTH 12 0
BBX 9 17 2 0
BITMAP
6600
6600
0000
FF80
FF80
E000
E000
E000
E000
FF00
FF00
E000
E000
E000
E000
FF80
FF80
ENDCHAR
STARTCHAR copyright
ENCODING 169
SWIDTH 825 0
DWIDTH 16 0
BBX 15 14 0 0
BITMAP
07C0
1830
2008
47E4
4C24
9802
9802
9802
9802
4C04
47E4
2008
1830
07C0
ENDCHAR
STARTCHAR afii10053
ENCODING 170
SWIDTH 736 0
DWIDTH 14 0
BBX 13 14 0 0
BITMAP
07F8
1FF8
7C18
7000
F000
E000
FFC0
FFC0
E000
F000
7000
7C08
1FF8
0FF0
ENDCHAR
STARTCHAR guillemotleft
ENCODING 171
SWIDTH 614 0
DWIDTH 12 0
BBX 11 8 0 1
BITMAP
0840
1CE0
39C0
F780
7380
39C0
18C0
0C60
ENDCHAR
STARTCHAR logicalnot
ENCODING 172
SWIDTH 687 0
DWIDTH 13 0
BBX 11 7 1 2
BITMAP
FFE0
FFE0
0060
0060
0060
0060
0060
ENDCHAR
STARTCHAR hyphen
ENCODING 173
SWIDTH 289 0
DWIDTH 5 0
BBX 4 2 1 5
BITMAP
F0
F0
ENDCHAR
STARTCHAR registered
ENCODING 174
SWIDTH 687 0
DWIDTH 13 0
BBX 10 10 2 4
BITMAP
1E00
2100
4080
8040
9F40
9F40
9E40
5B80
6180
1E00
ENDCHAR
STARTCHAR afii10056
ENCODING 175
SWIDTH 368 0
DWIDTH 7 0
BBX 7 17 0 0
BITMAP
C6
C6
00
38
38
38
38
38
38
38
38
38
38
38
38
38
38
ENDCHAR
STARTCHAR degree
ENCODING 176
SWIDTH 241 0
DWIDTH 5 0
BBX 3 4 1 10
BITMAP
40
A0
A0
40
ENDCHAR
STARTCHAR plusminus
ENCODING 177
SWIDTH 687 0
DWIDTH 13 0
BBX 10 12 2 0
BITMAP
0C00
0C00
0C00
FFC0
FFC0
0C00
0C00
0C00
0C00
0000
FFC0
FFC0
ENDCHAR
STARTCHAR afii10055
ENCODING 178
SWIDTH 361 0
DWIDTH 7 0
BBX 3 14 2 0
BITMAP
E0
E0
E0
E0
E0
E0
E0
E0
E0
E0
E0
E0
E0
E0
ENDCHAR
STARTCHAR afii10103
ENCODING 179
SWIDTH 361 0
DWIDTH 7 0
BBX 3 14 2 0
BITMAP
E0
E0
00
00
E0
E0
E0
E0
E0
E0
E0
E0
E0
E0
ENDCHAR
STARTCHAR afii10098
ENCODING 180
SWIDTH 526 0
DWIDTH 10 0
BBX 8 12 2 0
BITMAP
07
07
FF
FF
E0
E0
E0
E0
E0
E0
E0
E0
ENDCHAR
STARTCHAR mu
ENCODING 181
SWIDTH 699 0
DWIDTH 13 0
BBX 10 14 2 -4
BITMAP
E1C0
E1C0
E1C0
E1C0
E1C0
E1C0
E1C0
E3C0
FFC0
FDC0
E000
E000
E000
E000
ENDCHAR
STARTCHAR paragraph
ENCODING 182
SWIDTH 693 0
DWIDTH 13 0
BBX 8 18 2 -4
BITMAP
7F
FB
FB
FB
FB
FB
7B
1B
1B
1B
1B
1B
1B
1B
1B
1B
1B
1B
ENDCHAR
STARTCHAR periodcentered
ENCODING 183
SWIDTH 343 0
DWIDTH 13 0
BBX 3 2 5 5
BITMAP
E0
E0
ENDCHAR
STARTCHAR afii10071
ENCODING 184
SWIDTH 614 0
DWIDTH 12 0
BBX 10 13 1 0
BITMAP
3300
3300
0000
1F00
7F80
71C0
E1C0
FFC0
FFC0
F000
7040
7FC0
1FC0
ENDCHAR
STARTCHAR afii61352
ENCODING 185
SWIDTH 1105 0
DWIDTH 21 0
BBX 19 14 1 0
BITMAP
E03000
F03000
F03000
F833C0
FC37E0
DE3660
CE3660
C737E0
C7B3C0
C3F000
C1F7E0
C0F7E0
C0F000
C07000
ENDCHAR
STARTCHAR afii10101
ENCODING 186
SWIDTH 526 0
DWIDTH 10 0
BBX 8 10 1 0
BITMAP
1F
7F
71
E0
FC
FC
E0
70
7F
1F
ENDCHAR
STARTCHAR guillemotright
ENCODING 187
SWIDTH 614 0
DWIDTH 12 0
BBX 11 8 0 1
BITMAP
C600
6300
7380
39C0
3DE0
7380
E700
4200
ENDCHAR
STARTCHAR afii10105
ENCODING 188
SWIDTH 361 0
DWIDTH 7 0
BBX 6 18 0 -4
BITMAP
1C
1C
00
00
1C
1C
1C
1C
1C
1C
1C
1C
1C
1C
1C
9C
FC
F8
ENDCHAR
STARTCHAR afii10054
ENCODING 189
SWIDTH 594 0
DWIDTH 11 0
BBX 10 14 1 0
BITMAP
3F80
7F80
F080
F000
F000
FC00
7F00
1F80
07C0
01C0
01C0
83C0
FF80
FE00
ENDCHAR
STARTCHAR afii10102
ENCODING 190
SWIDTH 622 0
DWIDTH 12 0
BBX 9 10 2 0
BITMAP
7F00
FF00
F100
F000
FE00
3F80
0F80
8780
FF00
FE00
ENDCHAR
STARTCHAR afii10104
ENCODING 191
SWIDTH 368 0
DWIDTH 7 0
BBX 7 14 0 0
BITMAP
C6
C6
00
00
38
38
38
38
38
38
38
38
38
38
ENDCHAR
STARTCHAR afii10017
ENCODING 192
SWIDTH 789 0
DWIDTH 15 0
BBX 14 14 0 0
BITMAP
0780
0780
0FC0
0DC0
0DC0
19E0
18E0
38E0
3FF0
3FF0
7078
6038
6038
C03C
ENDCHAR
STARTCHAR afii10018
ENCODING 193
SWIDTH 684 0
DWIDTH 13 0
BBX 10 14 2 0
BITMAP
FFC0
FFC0
E000
E000
E000
E000
FE00
FF80
E380
E1C0
E1C0
E1C0
FF80
FF00
ENDCHAR
STARTCHAR afii10019
ENCODING 194
SWIDTH 684 0
DWIDTH 13 0
BBX 10 14 2 0
BITMAP
FF00
FF00
E380
E380
E380
E700
FC00
FF00
E3C0
E1C0
E1C0
E1C0
FF80
FF00
ENDCHAR
STARTCHAR afii10020
ENCODING 195
SWIDTH 578 0
DWIDTH 11 0
BBX 9 14 2 0
BITMAP
FF80
FF80
E000
E000
E000
E000
E000
E000
E000
E000
E000
E000
E000
E000
ENDCHAR
STARTCHAR afii10021
ENCODING 196
SWIDTH 789 0
DWIDTH 15 0
BBX 14 17 1 -3
BITMAP
3FF8
3FF8
3838
3838
3838
3838
3838
3838
3838
7038
7038
7038
FFFC
FFFC
E01C
E01C
E01C
ENDCHAR
STARTCHAR afii10022
ENCODING 197
SWIDTH 631 0
DWIDTH 12 0
BBX 9 14 2 0
BITMAP
FF80
FF80
E000
E000
E000
E000
FF00
FF00
E000
E000
E000
E000
FF80
FF80
ENDCHAR
STARTCHAR afii10024
ENCODING 198
SWIDTH 1105 0
DWIDTH 21 0
BBX 21 14 0 0
BITMAP
707070
3870E0
1C71C0
0C7180
067300
077700
03FE00
07FF00
0F7780
0E7380
1E73C0
3C71E0
7870F0
F870F8
ENDCHAR
STARTCHAR afii10025
ENCODING 199
SWIDTH 631 0
DWIDTH 12 0
BBX 10 14 1 0
BITMAP
FF00
FF00
C380
0380
0380
0700
3C00
3F00
03C0
01C0
01C0
81C0
FF80
7F00
ENDCHAR
STARTCHAR afii10026
ENCODING 200
SWIDTH 842 0
DWIDTH 16 0
BBX 12 14 2 0
BITMAP
C070
C0F0
C0F0
C1F0
C3F0
C7B0
C730
CE30
DE30
FC30
F830
F030
F030
E030
ENDCHAR
STARTCHAR afii10027
ENCODING 201
SWIDTH 842 0
DWIDTH 16 0
BBX 12 17 2 0
BITMAP
1980
0F00
0000
C070
C0F0
C0F0
C1F0
C3F0
C7B0
C730
CE30
DE30
FC30
F830
F030
F030
E030
ENDCHAR
STARTCHAR afii10028
ENCODING 202
SWIDTH 736 0
DWIDTH 14 0
BBX 12 14 2 0
BITMAP
E0E0
E1C0
E380
E300
E600
EE00
FC00
FE00
EF00
E700
E780
E3C0
E1E0
E1F0
ENDCHAR
STARTCHAR afii10029
ENCODING 203
SWIDTH 789 0
DWIDTH 15 0
BBX 13 14 1 0
BITMAP
3FF8
3FF8
3838
3838
3838
3838
3838
3838
3838
3838
3838
7038
F038
E038
ENDCHAR
STARTCHAR afii10030
ENCODING 204
SWIDTH 947 0
DWIDTH 18 0
BBX 15 14 1 0
BITMAP
F81E
F83E
F83E
FC3E
DC7E
DC6E
DE6E
CEEE
CECE
CFCE
C78E
C78E
C38E
C00E
ENDCHAR
STARTCHAR afii10031
ENCODING 205
SWIDTH 789 0
DWIDTH 15 0
BBX 12 14 2 0
BITMAP
E070
E070
E070
E070
E070
E070
FFF0
FFF0
E070
E070
E070
E070
E070
E070
ENDCHAR
STARTCHAR afii10032
ENCODING 206
SWIDTH 842 0
DWIDTH 16 0
BBX 15 14 1 0
BITMAP
0FE0
3FF0
783C
701C
F01E
E00E
E00E
E00E
E00E
F01E
701C
783C
3FF0
0FE0
ENDCHAR
STARTCHAR afii10033
ENCODING 207
SWIDTH 789 0
DWIDTH 15 0
BBX 12 14 2 0
BITMAP
FFF0
FFF0
E070
E070
E070
E070
E070
E070
E070
E070
E070
E070
E070
E070
ENDCHAR
STARTCHAR afii10034
ENCODING 208
SWIDTH 631 0
DWIDTH 12 0
BBX 10 14 2 0
BITMAP
FF00
FFC0
E3C0
E1C0
E1C0
E1C0
E380
FF80
FE00
E000
E000
E000
E000
E000
ENDCHAR
STARTCHAR afii10035
ENCODING 209
SWIDTH 736 0
DWIDTH 14 0
BBX 13 14 0 0
BITMAP
07F8
1FF8
7C18
7000
F000
E000
E000
E000
E000
F000
7000
7C08
1FF8
0FF0
ENDCHAR
STARTCHAR afii10036
ENCODING 210
SWIDTH 736 0
DWIDTH 14 0
BBX 13 14 0 0
BITMAP
FFF8
FFF8
0700
0700
0700
0700
0700
0700
0700
0700
0700
0700
0700
0700
ENDCHAR
STARTCHAR afii10037
ENCODING 211
SWIDTH 736 0
DWIDTH 14 0
BBX 13 14 1 0
BITMAP
F038
7830
3870
3C60
1CE0
1FC0
0F80
0F80
0700
0700
0E00
0E00
7C00
7800
ENDCHAR
STARTCHAR afii10038
ENCODING 212
SWIDTH 947 0
DWIDTH 18 0
BBX 17 14 1 0
BITMAP
01C000
01C000
1FFC00
7FFF00
71C700
E1C380
E1C380
E1C380
E1C380
71C700
7FFF00
1FFC00
01C000
01C000
ENDCHAR
STARTCHAR afii10039
ENCODING 213
SWIDTH 684 0
DWIDTH 13 0
BBX 12 14 1 0
BITMAP
7070
78E0
38C0
3D80
1D80
1F00
0F00
0F00
0F80
1B80
3BC0
31C0
61E0
E0F0
ENDCHAR
STARTCHAR afii10040
ENCODING 214
SWIDTH 789 0
DWIDTH 15 0
BBX 13 17 2 -3
BITMAP
E070
E070
E070
E070
E070
E070
E070
E070
E070
E070
E070
E070
FFF8
FFF8
0038
0038
0038
ENDCHAR
STARTCHAR afii10041
ENCODING 215
SWIDTH 736 0
DWIDTH 14 0
BBX 12 14 1 0
BITMAP
E070
E070
E070
E070
E070
E070
F0F0
7FF0
3F70
0070
0070
0070
0070
0070
ENDCHAR
STARTCHAR afii10042
ENCODING 216
SWIDTH 1000 0
DWIDTH 19 0
BBX 17 14 1 0
BITMAP
E1C380
E1C380
E1C380
E1C380
E1C380
E1C380
E1C380
E1C380
E1C380
E1C380
E1C380
E1C380
FFFF80
FFFF80
ENDCHAR
STARTCHAR afii10043
ENCODING 217
SWIDTH 1000 0
DWIDTH 19 0
BBX 18 17 1 -3
BITMAP
E1C380
E1C380
E1C380
E1C380
E1C380
E1C380
E1C380
E1C380
E1C380
E1C380
E1C380
E1C380
FFFFC0
FFFFC0
0001C0
0001C0
0001C0
ENDCHAR
STARTCHAR afii10044
ENCODING 218
SWIDTH 736 0
DWIDTH 14 0
BBX 12 14 1 0
BITMAP
F800
F800
3800
3800
3800
3800
3F80
3FE0
38E0
3870
3870
3870
3FE0
3FC0
ENDCHAR
STARTCHAR afii10045
ENCODING 219
SWIDTH 1000 0
DWIDTH 19 0
BBX 16 14 2 0
BITMAP
E007
E007
E007
E007
E007
E007
FE07
FF87
E387
E1C7
E1C7
E1C7
FF87
FF07
ENDCHAR
STARTCHAR afii10046
ENCODING 220
SWIDTH 684 0
DWIDTH 13 0
BBX 10 14 2 0
BITMAP
E000
E000
E000
E000
E000
E000
FE00
FF80
E380
E1C0
E1C0
E1C0
FF80
FF00
ENDCHAR
STARTCHAR afii10047
ENCODING 221
SWIDTH 736 0
DWIDTH 14 0
BBX 13 14 1 0
BITMAP
FF00
FFC0
C1F0
0070
0078
0038
1FF8
1FF8
0038
0078
0070
81F0
FFC0
7F80
ENDCHAR
STARTCHAR afii10048
ENCODING 222
SWIDTH 1210 0
DWIDTH 23 0
BBX 20 14 2 0
BITMAP
E03F00
E0FF80
E1E1E0
E1C0E0
E3C0F0
E38070
FF8070
FF8070
E38070
E3C0F0
E1C0E0
E1E1E0
E0FF80
E03F00
ENDCHAR
STARTCHAR afii10049
ENCODING 223
SWIDTH 736 0
DWIDTH 14 0
BBX 12 14 1 0
BITMAP
0FF0
1FF0
3870
3870
3870
1C70
1FF0
07F0
0E70
0E70
1C70
3C70
7870
F870
ENDCHAR
STARTCHAR afii10065
ENCODING 224
SWIDTH 631 0
DWIDTH 12 0
BBX 10 10 1 0
BITMAP
7E00
7F80
4380
0380
3F80
FF80
E380
E380
FFC0
7BC0
ENDCHAR
STARTCHAR afii10066
ENCODING 225
SWIDTH 684 0
DWIDTH 13 0
BBX 11 14 1 0
BITMAP
1FC0
7FC0
7000
E000
EF00
FFC0
F1C0
E0E0
E0E0
E0E0
E0E0
71C0
7FC0
1F00
ENDCHAR
STARTCHAR afii10067
ENCODING 226
SWIDTH 631 0
DWIDTH 12 0
BBX 9 10 2 0
BITMAP
FE00
FF00
E700
E700
FE00
FF00
E380
E380
FF80
FF00
ENDCHAR
STARTCHAR afii10068
ENCODING 227
SWIDTH 526 0
DWIDTH 10 0
BBX 8 10 2 0
BITMAP
FF
FF
E0
E0
E0
E0
E0
E0
E0
E0
ENDCHAR
STARTCHAR afii10069
ENCODING 228
SWIDTH 684 0
DWIDTH 13 0
BBX 12 12 1 -2
BITMAP
3FE0
3FE0
38E0
38E0
38E0
38E0
70E0
70E0
FFF0
FFF0
E070
E070
ENDCHAR
STARTCHAR afii10070
ENCODING 229
SWIDTH 631 0
DWIDTH 12 0
BBX 10 10 1 0
BITMAP
1F00
7F80
71C0
E1C0
FFC0
FFC0
F000
7040
7FC0
1FC0
ENDCHAR
STARTCHAR afii10072
ENCODING 230
SWIDTH 947 0
DWIDTH 18 0
BBX 17 10 1 0
BITMAP
71C700
39CE00
19CC00
0DD800
0DD800
1FFC00
1DDC00
3DDE00
79CF00
F1C780
ENDCHAR
STARTCHAR afii10073
ENCODING 231
SWIDTH 578 0
DWIDTH 11 0
BBX 9 10 1 0
BITMAP
FE00
FF00
8700
0700
3E00
3F00
0380
0380
FF80
FF00
ENDCHAR
STARTCHAR afii10074
ENCODING 232
SWIDTH 684 0
DWIDTH 13 0
BBX 10 10 2 0
BITMAP
C1C0
C3C0
C7C0
C7C0
CEC0
DCC0
FCC0
F8C0
F0C0
E0C0
ENDCHAR
STARTCHAR afii10075
ENCODING 233
SWIDTH 684 0
DWIDTH 13 0
BBX 10 13 2 0
BITMAP
3300
1E00
0000
C1C0
C3C0
C7C0
C7C0
CEC0
DCC0
FCC0
F8C0
F0C0
E0C0
ENDCHAR
STARTCHAR afii10076
ENCODING 234
SWIDTH 684 0
DWIDTH 13 0
BBX 10 10 2 0
BITMAP
E380
E700
E600
EC00
EC00
FE00
EE00
EF00
E780
E3C0
ENDCHAR
STARTCHAR afii10077
ENCODING 235
SWIDTH 684 0
DWIDTH 13 0
BBX 11 10 1 0
BITMAP
3FE0
3FE0
38E0
38E0
38E0
38E0
38E0
38E0
F8E0
F0E0
ENDCHAR
STARTCHAR afii10078
ENCODING 236
SWIDTH 842 0
DWIDTH 16 0
BBX 13 10 2 0
BITMAP
F078
F8F8
F8F8
FCF8
DDB8
DDB8
CF38
CF38
C638
C038
ENDCHAR
STARTCHAR afii10079
ENCODING 237
SWIDTH 684 0
DWIDTH 13 0
BBX 10 10 2 0
BITMAP
E1C0
E1C0
E1C0
E1C0
FFC0
FFC0
E1C0
E1C0
E1C0
E1C0
ENDCHAR
STARTCHAR afii10080
ENCODING 238
SWIDTH 684 0
DWIDTH 13 0
BBX 11 10 1 0
BITMAP
1F00
7FC0
71C0
E0E0
E0E0
E0E0
E0E0
71C0
7FC0
1F00
ENDCHAR
STARTCHAR afii10081
ENCODING 239
SWIDTH 684 0
DWIDTH 13 0
BBX 10 10 2 0
BITMAP
FFC0
FFC0
E1C0
E1C0
E1C0
E1C0
E1C0
E1C0
E1C0
E1C0
ENDCHAR
STARTCHAR afii10082
ENCODING 240
SWIDTH 684 0
DWIDTH 13 0
BBX 11 14 2 -4
BITMAP
EF80
FFC0
F1E0
E0E0
E0E0
E0E0
E0E0
F1C0
FFC0
EF80
E000
E000
E000
E000
ENDCHAR
STARTCHAR afii10083
ENCODING 241
SWIDTH 526 0
DWIDTH 10 0
BBX 8 10 1 0
BITMAP
1F
7F
71
E0
E0
E0
E0
70
7F
1F
ENDCHAR
STARTCHAR afii10084
ENCODING 242
SWIDTH 526 0
DWIDTH 10 0
BBX 9 10 1 0
BITMAP
FF80
FF80
1C00
1C00
1C00
1C00
1C00
1C00
1C00
1C00
ENDCHAR
STARTCHAR afii10085
ENCODING 243
SWIDTH 631 0
DWIDTH 12 0
BBX 12 14 0 -4
BITMAP
F070
7060
78E0
38C0
39C0
1D80
1F80
1F00
0F00
0E00
0E00
1C00
3C00
7800
ENDCHAR
STARTCHAR afii10086
ENCODING 244
SWIDTH 1000 0
DWIDTH 19 0
BBX 17 18 1 -4
BITMAP
01C000
01C000
01C000
01C000
3DDE00
7FFF00
F3E780
E1C380
E1C380
E1C380
E1C380
F3E780
7FFF00
3DDE00
01C000
01C000
01C000
01C000
ENDCHAR
STARTCHAR afii10087
ENCODING 245
SWIDTH 578 0
DWIDTH 11 0
BBX 10 10 1 0
BITMAP
F1C0
7B80
3F00
3F00
1E00
1E00
3F00
3780
7780
E3C0
ENDCHAR
STARTCHAR afii10088
ENCODING 246
SWIDTH 684 0
DWIDTH 13 0
BBX 11 12 2 -2
BITMAP
E1C0
E1C0
E1C0
E1C0
E1C0
E1C0
E1C0
E1C0
FFE0
FFE0
00E0
00E0
ENDCHAR
STARTCHAR afii10089
ENCODING 247
SWIDTH 631 0
DWIDTH 12 0
BBX 10 10 1 0
BITMAP
E1C0
E1C0
E1C0
E1C0
E3C0
FFC0
7DC0
01C0
01C0
01C0
ENDCHAR
STARTCHAR afii10090
ENCODING 248
SWIDTH 1000 0
DWIDTH 19 0
BBX 17 10 1 0
BITMAP
E1C380
E1C380
E1C380
E1C380
E1C380
E1C380
E1C380
E1C380
FFFF80
FFFF80
ENDCHAR
STARTCHAR afii10091
ENCODING 249
SWIDTH 1000 0
DWIDTH 19 0
BBX 18 12 1 -2
BITMAP
E1C380
E1C380
E1C380
E1C380
E1C380
E1C380
E1C380
E1C380
FFFFC0
FFFFC0
0001C0
0001C0
ENDCHAR
STARTCHAR afii10092
ENCODING 250
SWIDTH 684 0
DWIDTH 13 0
BBX 11 10 1 0
BITMAP
F800
F800
3800
3800
3F80
3FC0
38E0
38E0
3FE0
3FC0
ENDCHAR
STARTCHAR afii10093
ENCODING 251
SWIDTH 894 0
DWIDTH 17 0
BBX 14 10 2 0
BITMAP
E01C
E01C
E01C
E01C
FE1C
FF1C
E39C
E39C
FF9C
FF1C
ENDCHAR
STARTCHAR afii10094
ENCODING 252
SWIDTH 631 0
DWIDTH 12 0
BBX 9 10 2 0
BITMAP
E000
E000
E000
E000
FE00
FF00
E380
E380
FF80
FF00
ENDCHAR
STARTCHAR afii10095
ENCODING 253
SWIDTH 526 0
DWIDTH 10 0
BBX 8 10 1 0
BITMAP
F8
FE
8E
07
3F
3F
07
0E
FE
F8
ENDCHAR
STARTCHAR afii10096
ENCODING 254
SWIDTH 1000 0
DWIDTH 19 0
BBX 16 10 2 0
BITMAP
E0F8
E3FE
E38E
E707
FF07
FF07
E707
E38E
E3FE
E0F8
ENDCHAR
STARTCHAR afii10097
ENCODING 255
SWIDTH 631 0
DWIDTH 12 0
BBX 10 10 1 0
BITMAP
3FC0
7FC0
71C0
71C0
3FC0
1FC0
19C0
39C0
71C0
E1C0
ENDCHAR
STARTCHAR fl
ENCODING -1
SWIDTH 711 0
DWIDTH 14 0
BBX 11 14 1 0
BITMAP
3FE0
7FE0
70E0
70E0
FEE0
FEE0
70E0
70E0
70E0
70E0
70E0
70E0
70E0
70E0
ENDCHAR
STARTCHAR Zcaron
ENCODING -1
SWIDTH 675 0
DWIDTH 13 0
BBX 11 17 1 0
BITMAP
3B80
0E00
0000
FFE0
FFE0
01C0
03C0
0780
0700
0F00
1E00
1C00
3C00
7800
7000
FFE0
FFE0
ENDCHAR
STARTCHAR oe
ENCODING -1
SWIDTH 990 0
DWIDTH 19 0
BBX 17 10 1 0
BITMAP
1F1C00
7FFF00
71E700
E1C380
E1FF80
E1FF80
E1E000
71E080
7FFF80
1F3F80
ENDCHAR
STARTCHAR Ydieresis
ENCODING -1
SWIDTH 738 0
DWIDTH 14 0
BBX 13 17 1 0
BITMAP
0CC0
0CC0
0000
F038
7830
3860
3CE0
1CC0
0FC0
0F80
0700
0700
0700
0700
0700
0700
0700
ENDCHAR
STARTCHAR dotlessi
ENCODING -1
SWIDTH 361 0
DWIDTH 7 0
BBX 3 10 2 0
BITMAP
E0
E0
E0
E0
E0
E0
E0
E0
E0
E0
ENDCHAR
STARTCHAR lslash
ENCODING -1
SWIDTH 361 0
DWIDTH 7 0
BBX 7 14 0 0
BITMAP
38
38
38
38
3A
3E
3C
F8
F8
B8
38
38
38
38
ENDCHAR
STARTCHAR Lslash
ENCODING -1
SWIDTH 620 0
DWIDTH 12 0
BBX 11 14 0 0
BITMAP
3800
3800
3800
3800
3A00
3E00
3E00
7800
F800
F800
3800
3800
3FE0
3FE0
ENDCHAR
STARTCHAR fi
ENCODING -1
SWIDTH 711 0
DWIDTH 14 0
BBX 11 14 1 0
BITMAP
1F80
7F80
7000
7000
FFE0
FFE0
70E0
70E0
70E0
70E0
70E0
70E0
70E0
70E0
ENDCHAR
STARTCHAR OE
ENCODING -1
SWIDTH 1102 0
DWIDTH 21 0
BBX 19 14 1 0
BITMAP
07FFE0
1FFFE0
387800
703800
E03800
E03800
E03FC0
E03FC0
E03800
E03800
703800
387800
1FFFE0
07FFE0
ENDCHAR
STARTCHAR caron
ENCODING -1
SWIDTH 675 0
DWIDTH 13 0
BBX 7 2 3 12
BITMAP
EE
38
ENDCHAR
STARTCHAR ogonek
ENCODING -1
SWIDTH 675 0
DWIDTH 13 0
BBX 4 2 5 -4
BITMAP
E0
F0
ENDCHAR
STARTCHAR hungarumlaut
ENCODING -1
SWIDTH 675 0
DWIDTH 13 0
BBX 7 2 4 12
BITMAP
7E
D8
ENDCHAR
STARTCHAR dotaccent
ENCODING -1
SWIDTH 675 0
DWIDTH 13 0
BBX 3 2 5 12
BITMAP
E0
E0
ENDCHAR
STARTCHAR breve
ENCODING -1
SWIDTH 675 0
DWIDTH 13 0
BBX 7 2 3 12
BITMAP
EE
7C
ENDCHAR
STARTCHAR tilde
ENCODING -1
SWIDTH 675 0
DWIDTH 13 0
BBX 7 2 3 12
BITMAP
7E
FC
ENDCHAR
STARTCHAR circumflex
ENCODING -1
SWIDTH 675 0
DWIDTH 13 0
BBX 7 2 3 12
BITMAP
38
EE
ENDCHAR
STARTCHAR scaron
ENCODING -1
SWIDTH 622 0
DWIDTH 12 0
BBX 9 13 2 0
BITMAP
7700
1C00
0000
7F00
FF00
F100
F000
FE00
3F80
0F80
8780
FF00
FE00
ENDCHAR
STARTCHAR ring
ENCODING -1
SWIDTH 675 0
DWIDTH 13 0
BBX 3 2 5 12
BITMAP
E0
E0
ENDCHAR
STARTCHAR florin
ENCODING -1
SWIDTH 687 0
DWIDTH 13 0
BBX 11 18 2 -4
BITMAP
03E0
0FE0
0E00
1E00
1C00
3C00
7F00
7F00
3C00
3C00
7800
7800
7800
7800
7800
F000
F000
F000
ENDCHAR
STARTCHAR fraction
ENCODING -1
SWIDTH 93 0
DWIDTH 2 0
BBX 13 14 -5 0
BITMAP
0038
0070
0060
00C0
01C0
0380
0300
0600
0E00
1C00
1800
3000
7000
E000
ENDCHAR
STARTCHAR Scaron
ENCODING -1
SWIDTH 594 0
DWIDTH 11 0
BBX 10 17 1 0
BITMAP
3B80
0E00
0000
3F80
7F80
F080
F000
F000
FC00
7F00
1F80
07C0
01C0
01C0
83C0
FF80
FE00
ENDCHAR
STARTCHAR zcaron
ENCODING -1
SWIDTH 608 0
DWIDTH 12 0
BBX 10 13 1 0
BITMAP
3B80
0E00
0000
FFC0
FFC0
0780
0F00
1E00
3E00
7C00
7800
FFC0
FFC0
ENDCHAR
ENDFONT
